<?xml version="1.0" standalone="no"?>
<!DOCTYPE svg PUBLIC "-//W3C//DTD SVG 20010904//EN"
 "http://www.w3.org/TR/2001/REC-SVG-20010904/DTD/svg10.dtd">
<svg version="1.0" xmlns="http://www.w3.org/2000/svg"
 width="526.000000pt" height="526.000000pt" viewBox="0 0 526.000000 526.000000"
 preserveAspectRatio="xMidYMid meet">

<g transform="translate(0.000000,526.000000) scale(0.100000,-0.100000)"
fill="#000000" stroke="none">
<path d="M2546 5223 c-3 -21 -6 -46 -6 -57 0 -17 1 -17 25 -2 33 22 35 21 35
-14 0 -24 -4 -30 -22 -30 -21 0 -21 -1 -3 -13 10 -8 15 -19 12 -24 -4 -6 0
-16 9 -23 8 -7 13 -19 10 -27 -5 -11 10 -17 35 -15 3 1 6 -5 6 -13 0 -7 -6
-11 -12 -8 -7 2 -15 -3 -18 -11 -5 -12 0 -16 18 -16 29 0 42 -17 25 -33 -9 -9
-11 -8 -8 3 2 11 -9 17 -42 21 -25 3 -37 7 -27 7 18 2 25 22 7 22 -5 0 -10 8
-11 18 0 11 -2 12 -6 4 -3 -8 -14 5 -26 30 -11 24 -27 51 -35 61 -12 13 -13
20 -4 29 7 7 12 18 12 26 0 11 -3 12 -14 3 -11 -10 -16 -9 -24 5 -6 11 -14 14
-25 8 -13 -8 -14 -14 -2 -49 8 -21 13 -40 12 -41 -1 -1 -18 1 -39 3 -32 4 -37
9 -43 39 -5 30 -10 34 -36 34 -21 0 -32 -6 -39 -22 l-9 -23 0 23 c-1 12 -6 22
-12 22 -12 0 -10 -22 7 -124 6 -30 4 -37 -6 -31 -9 6 -11 -2 -5 -36 3 -24 9
-51 11 -61 3 -9 0 -19 -6 -23 -10 -6 -15 20 -12 58 2 17 1 18 -15 1 -17 -16
-18 -15 -25 17 -4 19 -5 40 -3 47 3 7 0 10 -5 7 -6 -3 -10 2 -10 11 0 10 -4
31 -10 48 -5 17 -12 43 -15 59 -3 15 -10 27 -15 27 -14 0 -50 -38 -50 -53 0
-7 -9 -18 -21 -25 -15 -9 -19 -20 -16 -35 l6 -22 -19 23 -18 22 -21 -26 -20
-26 47 -47 c60 -59 109 -94 122 -86 6 3 13 -1 16 -9 8 -22 25 -20 18 2 -3 11
-1 10 5 -3 5 -11 17 -54 25 -95 32 -150 47 -226 52 -260 l5 -35 -15 30 c-14
28 -14 24 -15 -78 -1 -119 -15 -135 -26 -30 -12 120 -20 134 -55 91 -14 -18
-20 -20 -33 -10 -12 10 -16 9 -21 -4 -5 -14 -9 -14 -23 -3 -9 8 0 -15 20 -51
20 -36 41 -75 46 -87 22 -48 50 -56 188 -48 71 3 147 8 171 11 55 5 54 -3 -3
-17 -26 -7 -45 -17 -45 -25 0 -8 -4 -14 -10 -14 -5 0 -10 -4 -10 -8 0 -15 141
-272 150 -272 4 0 51 72 105 160 53 87 102 163 109 168 11 9 225 36 231 30 2
-2 -5 -125 -15 -273 -11 -149 -20 -276 -20 -282 0 -9 -22 -13 -76 -13 -41 0
-85 -5 -96 -11 -21 -11 -21 -10 -16 105 3 64 4 115 3 114 -1 -2 -33 -52 -70
-111 -59 -95 -70 -108 -89 -102 -11 4 -30 8 -42 8 -11 1 -27 7 -35 14 -27 22
-66 26 -73 8 -3 -10 -12 -15 -21 -11 -9 3 -15 0 -15 -8 0 -21 -23 -25 -38 -7
-11 15 -12 15 -7 0 7 -19 -19 -43 -39 -36 -8 3 -26 -5 -41 -19 -21 -19 -30
-22 -45 -14 -19 10 -19 9 -8 -17 7 -15 17 -31 23 -35 15 -12 80 -9 92 3 8 8
17 8 31 0 11 -6 36 -11 55 -11 20 0 40 -7 48 -17 13 -15 11 -16 -12 -10 -18 5
-29 2 -32 -7 -4 -9 -36 -15 -105 -19 -55 -4 -109 -10 -119 -13 -15 -5 -15 -4
-3 5 12 9 10 11 -12 11 -33 0 -58 9 -58 21 0 5 8 9 18 9 16 1 16 1 0 11 -25
14 -22 29 5 30 12 0 16 3 10 6 -21 8 -15 20 14 28 22 5 24 8 12 17 -11 8 -11
9 3 5 9 -3 27 2 40 12 13 10 47 30 76 45 28 14 52 28 52 29 0 2 -16 32 -35 67
l-35 65 -1 -40 c-2 -64 -13 -90 -36 -88 -14 2 -20 -3 -19 -14 1 -13 -11 -19
-47 -25 -47 -8 -103 -48 -79 -56 19 -6 14 -40 -5 -38 -12 1 -19 -7 -21 -23 -5
-32 -107 -132 -127 -125 -8 4 -15 1 -15 -6 0 -6 -6 -10 -12 -7 -7 2 -25 -4
-40 -15 -27 -18 -27 -18 -37 1 -6 11 -11 38 -11 60 0 31 5 43 21 52 12 6 40
28 63 49 46 42 88 66 129 75 15 3 27 10 27 16 0 7 -7 8 -17 4 -10 -4 -26 -10
-37 -13 -29 -8 -14 20 20 38 16 8 31 16 34 18 5 4 29 425 24 433 -2 4 -14 4
-27 2 -23 -5 -24 -9 -35 -157 -17 -225 -37 -300 -95 -354 -20 -19 -42 -25
-108 -32 -46 -5 -113 -13 -149 -19 -36 -5 -132 -13 -215 -16 -143 -7 -151 -6
-172 14 -32 31 -43 82 -43 209 0 100 -9 136 -23 100 -4 -10 -6 -10 -6 0 -1 16
-21 16 -21 -1 0 -7 -90 -73 -199 -147 -110 -74 -195 -137 -190 -139 12 -4 325
28 352 36 16 4 18 -1 15 -39 l-3 -43 -70 -2 c-111 -4 -254 -22 -278 -36 -35
-19 -77 -60 -77 -74 0 -7 -10 -15 -22 -17 -40 -9 -190 -26 -222 -26 l-31 0 3
90 3 90 52 38 c29 21 121 85 205 141 84 57 151 105 149 107 -2 2 -89 -5 -193
-16 -104 -11 -190 -20 -191 -20 -5 0 -3 96 3 132 6 35 9 38 48 42 181 24 186
25 80 20 -124 -7 -210 -31 -229 -65 -25 -44 -35 -70 -35 -95 0 -29 -21 -117
-29 -124 -19 -16 -41 -89 -42 -138 -1 -65 -10 -102 -24 -105 -9 -2 -12 -23
-14 -109 -1 -23 -7 -29 -40 -38 -32 -8 -43 -18 -58 -50 -10 -22 -24 -40 -30
-40 -7 0 -13 -7 -13 -15 0 -12 -13 -15 -57 -15 -77 0 -103 -8 -103 -31 0 -15
-7 -19 -40 -19 l-40 0 0 -1275 c0 -872 3 -1275 10 -1275 7 0 7 -6 0 -19 -6
-13 -10 -143 -10 -355 l0 -336 1000 0 1001 0 -5 33 c-3 17 -8 57 -11 87 -5 54
-20 133 -69 379 -14 69 -23 127 -21 129 2 3 12 1 22 -3 12 -5 14 -9 6 -12 -7
-3 -13 -9 -13 -15 0 -6 6 -6 15 2 11 9 27 9 72 -1 32 -6 96 -12 143 -12 54 0
76 -2 60 -7 -19 -6 -20 -8 -6 -9 16 -1 18 -6 12 -43 -4 -24 -9 -74 -12 -113
-3 -40 -12 -77 -20 -86 -20 -22 -18 -29 12 -29 24 0 25 -3 19 -27 -9 -38 -13
-40 -30 -17 -13 18 -14 16 -15 -25 0 -26 -7 -52 -16 -62 -15 -16 -14 -20 3
-51 10 -18 27 -41 37 -51 15 -13 17 -20 8 -29 -36 -36 -21 -38 323 -38 l335 0
-6 28 c-4 15 -13 42 -20 61 -17 42 -17 46 0 29 7 -8 17 -34 21 -57 5 -32 10
-40 17 -30 7 10 8 8 3 -8 l-6 -23 1200 0 1201 0 0 1931 c0 1757 -1 1931 -16
1925 -9 -3 -22 -6 -30 -6 -8 0 -14 -10 -14 -26 0 -16 -5 -24 -12 -21 -7 2 -12
12 -10 22 2 10 -10 29 -30 46 -32 27 -32 28 -9 29 13 0 21 3 18 7 -4 4 -36 6
-71 5 -66 -2 -89 9 -114 53 l-11 20 -1 -20 c-1 -18 -1 -19 -11 -2 -13 23 -31
22 -47 -3 -15 -24 -30 -25 -59 -5 l-22 15 19 45 c15 36 17 51 9 75 -12 33 -19
36 -38 18 -11 -11 -13 -8 -9 14 3 15 1 25 -3 22 -5 -3 -9 12 -9 32 0 29 -7 44
-35 71 -19 19 -35 38 -35 43 0 4 -6 11 -12 13 -7 3 -4 6 7 6 11 1 29 4 41 7
16 4 30 -7 65 -53 67 -89 61 -85 164 -91 128 -6 134 -3 96 50 -17 24 -42 56
-56 72 -14 16 -25 32 -25 36 0 4 15 18 34 31 38 26 66 67 66 97 0 12 5 24 10
27 6 3 10 15 10 26 0 11 -4 18 -9 15 -5 -3 -12 1 -15 10 -4 12 -2 15 9 10 9
-3 15 0 15 8 0 24 -36 101 -55 116 -17 14 -17 13 -7 -7 7 -12 16 -24 21 -28
15 -9 -9 -67 -25 -61 -7 3 -20 -1 -28 -9 -16 -16 -66 -20 -66 -6 0 5 -7 17
-17 26 -14 14 -14 18 -2 27 10 7 5 8 -16 3 -29 -6 -29 -6 -11 14 11 12 25 21
33 21 7 0 13 7 13 16 0 12 -5 14 -17 8 -33 -15 -94 -7 -118 16 -13 12 -21 28
-19 35 4 9 -44 14 -202 19 -114 4 -211 3 -215 -1 -4 -4 -10 -35 -12 -68 l-3
-60 -2 68 -2 67 -325 0 -325 0 0 -44 c0 -73 -12 -166 -21 -160 -5 3 -9 41 -9
86 0 73 -2 79 -17 72 -10 -4 -47 -11 -83 -15 -68 -8 -157 -29 -177 -41 -6 -5
-14 -35 -18 -67 -4 -33 -13 -68 -21 -78 -12 -16 -13 -10 -8 49 7 73 -2 142
-17 132 -9 -5 -7 -38 7 -104 3 -14 2 -21 -3 -17 -4 5 -12 34 -18 64 -6 32 -16
58 -24 61 -11 4 -13 -7 -7 -59 4 -35 10 -75 12 -89 3 -14 -8 2 -25 35 -17 33
-31 65 -31 72 0 23 -20 23 -87 -2 -39 -15 -83 -25 -103 -23 -30 3 -35 7 -38
31 -3 23 5 37 37 67 38 36 56 47 134 79 36 14 26 31 -20 31 -26 0 -36 -5 -40
-20 -3 -11 -14 -20 -25 -20 -16 0 -19 5 -14 28 3 15 11 55 17 90 10 53 16 65
36 73 13 5 28 9 32 9 4 0 22 -31 40 -69 35 -76 56 -85 66 -28 14 88 13 165 -2
216 -12 43 -13 62 -4 91 18 62 22 60 -124 60 -80 0 -135 -4 -135 -10 0 -5 -8
-7 -17 -4 -11 4 -14 3 -7 -3 6 -4 11 -22 11 -40 l0 -32 -26 29 c-20 22 -30 27
-41 20 -12 -8 -13 -12 -1 -19 10 -7 8 -12 -10 -24 -19 -14 -20 -19 -9 -32 15
-19 3 -19 -30 0 -18 9 -29 10 -37 3 -10 -8 -13 -3 -13 19 0 27 3 30 25 25 30
-5 69 24 60 45 -3 9 -1 11 8 6 21 -13 34 -11 34 4 0 12 -9 13 -46 8 -56 -9
-64 -13 -56 -32 5 -14 3 -14 -11 -2 -10 8 -27 13 -38 12 -15 -1 -16 0 -3 3 9
3 17 10 17 15 0 15 -46 10 -60 -6 -11 -13 -8 -17 19 -26 26 -9 31 -16 31 -45
0 -24 -5 -34 -15 -34 -8 0 -15 5 -15 10 0 6 -5 10 -11 10 -17 0 -89 60 -89 75
0 16 -22 25 -61 25 -34 0 -34 0 -9 -50 11 -22 20 -47 20 -56 0 -10 -14 11 -31
44 -37 74 -63 83 -73 25z m34 -21 c0 -7 -4 -10 -10 -7 -5 3 -10 16 -10 28 0
18 2 19 10 7 5 -8 10 -21 10 -28z m397 -54 c-15 -9 -19 -4 -11 16 5 14 9 15
15 5 5 -8 3 -17 -4 -21z m-350 -44 c-3 -3 -12 -4 -19 -1 -8 3 -5 6 6 6 11 1
17 -2 13 -5z m-310 -36 c-3 -7 -5 -2 -5 12 0 14 2 19 5 13 2 -7 2 -19 0 -25z
m323 6 c0 -8 -4 -12 -10 -9 -5 3 -10 10 -10 16 0 5 5 9 10 9 6 0 10 -7 10 -16z
m-151 -47 c1 -5 -3 -5 -9 -2 -9 5 -15 -23 -11 -47 0 -5 -3 -8 -9 -8 -5 0 -10
5 -10 10 0 6 -10 10 -22 10 -21 1 -21 2 -5 11 9 5 17 14 17 19 0 6 8 19 17 30
16 19 18 19 25 3 3 -10 7 -22 7 -26z m-80 -7 c0 -10 -3 -8 -9 5 -12 27 -12 43
0 25 5 -8 9 -22 9 -30z m-285 -16 c9 -24 2 -26 -12 -4 -7 11 -8 20 -3 20 5 0
12 -7 15 -16z m183 -36 c-3 -8 -6 -5 -6 6 -1 11 2 17 5 13 3 -3 4 -12 1 -19z
m739 -25 c4 -14 2 -34 -4 -43 -8 -13 -6 -19 9 -28 20 -13 25 -47 10 -71 -9
-13 -74 -30 -123 -31 -29 0 -26 -11 -42 152 -4 42 0 44 91 47 49 1 53 -1 59
-26z m-538 10 c-18 -3 -28 -11 -28 -21 0 -15 -2 -15 -10 -2 -16 25 -12 30 28
29 30 -2 32 -3 10 -6z m-333 -29 c9 -15 12 -23 6 -20 -11 7 -35 46 -28 46 3 0
12 -12 22 -26z m459 -51 c-8 -96 -23 -123 -68 -123 -53 0 -71 29 -71 114 0 66
2 71 23 74 21 3 22 0 22 -60 0 -66 17 -107 38 -94 7 4 12 36 12 80 0 78 3 86
32 86 17 0 18 -6 12 -77z m220 16 c10 -99 8 -129 -9 -129 -12 0 -15 16 -16 78
l-2 77 -13 -75 c-7 -41 -13 -76 -13 -77 -1 -2 -10 -3 -20 -3 -16 0 -22 11 -31
58 -19 97 -25 101 -30 22 -4 -62 -8 -75 -23 -78 -16 -3 -18 5 -16 87 l2 91 37
0 37 0 13 -62 c13 -69 21 -63 34 25 6 36 11 47 25 47 15 0 19 -11 25 -61z
m-404 26 c0 -8 -11 -44 -24 -80 l-24 -65 35 0 c23 0 33 -4 31 -12 -3 -8 -24
-13 -59 -13 -66 0 -76 20 -31 65 37 37 46 77 21 91 -13 6 -19 6 -19 -1 0 -5
-4 -10 -10 -10 -19 0 -10 21 13 30 35 14 67 12 67 -5z m818 -45 c0 -9 -3 -7
-8 5 -5 11 -8 29 -8 40 0 16 2 15 8 -5 4 -14 8 -32 8 -40z m-941 18 c-3 -7 -5
-2 -5 12 0 14 2 19 5 13 2 -7 2 -19 0 -25z m24 -82 c-21 -23 -22 -25 -7 -61
11 -26 12 -35 4 -33 -7 3 -16 20 -20 39 -5 27 -2 39 14 57 12 12 24 22 26 22
3 0 -5 -11 -17 -24z m2357 -83 c-10 -2 -28 -2 -40 0 -13 2 -5 4 17 4 22 1 32
-1 23 -4z m80 0 c-10 -2 -26 -2 -35 0 -10 3 -2 5 17 5 19 0 27 -2 18 -5z m12
-39 c0 -14 9 -33 20 -42 l21 -17 -21 -17 c-11 -10 -20 -13 -20 -8 0 6 -8 10
-17 10 -14 0 -15 2 -5 9 10 6 5 11 -17 21 -38 15 -39 23 -6 38 14 6 25 16 25
22 0 5 5 10 10 10 6 0 10 -12 10 -26z m-2170 -28 c0 -8 -7 -16 -15 -20 -8 -3
-15 -14 -15 -25 0 -16 -18 -31 -36 -31 -11 0 -2 31 11 36 8 4 15 14 15 24 0
17 12 27 33 29 4 1 7 -5 7 -13z m1469 -62 c2 -2 -10 -7 -27 -10 -17 -3 -40
-15 -51 -25 -11 -11 -35 -19 -53 -19 -30 0 -34 3 -32 28 0 15 2 31 2 35 2 7
152 -1 161 -9z m805 -36 c21 -30 20 -55 -3 -68 -21 -11 -203 -14 -263 -4 -37
6 -38 8 -38 50 l0 44 144 0 c138 0 146 -1 160 -22z m172 -54 c-4 -14 -9 -24
-12 -21 -3 2 -2 17 2 31 3 15 9 25 11 22 3 -3 2 -17 -1 -32z m-131 -24 c3 -5
1 -10 -4 -10 -6 0 -11 5 -11 10 0 6 2 10 4 10 3 0 8 -4 11 -10z m-485 -117
c23 -60 71 -183 107 -276 37 -92 64 -169 62 -171 -2 -3 -54 -8 -115 -12 l-110
-7 -16 42 c-19 48 -14 47 -187 27 -119 -15 -120 -15 -152 -74 -16 -28 -20 -29
-107 -35 -50 -3 -100 -11 -111 -17 -18 -9 -20 -8 -14 7 25 68 295 593 305 594
7 0 63 6 123 13 190 23 167 33 215 -91z m-732 1 c46 -30 55 -109 22 -183 -24
-52 -24 -48 -1 -54 34 -9 53 -52 53 -119 -1 -75 -13 -110 -48 -143 -23 -21
-37 -25 -93 -25 -36 -1 -86 -5 -111 -11 -25 -5 -90 -13 -144 -18 -74 -6 -102
-12 -111 -24 -14 -20 -47 -22 -75 -5 -16 11 -29 10 -66 -4 l-47 -17 6 107 c4
59 12 189 19 289 l12 182 65 6 c36 4 138 15 226 25 171 20 256 18 293 -6z
m1232 -473 c0 -5 14 -11 31 -15 35 -7 30 -26 -7 -26 -17 0 -24 -5 -24 -20 0
-25 -29 -27 -36 -2 -3 9 -12 29 -20 45 l-15 27 35 0 c20 0 36 -4 36 -9z m-406
-103 c-4 -7 -40 -58 -79 -113 -204 -284 -197 -271 -202 -356 l-6 -77 -56 -7
c-31 -3 -71 -9 -90 -12 l-34 -6 6 79 7 79 -115 174 c-63 95 -115 175 -115 176
0 1 33 5 73 9 39 4 86 9 103 12 30 6 35 2 90 -75 32 -45 62 -81 66 -81 4 0 39
43 79 94 l72 95 56 6 c31 3 63 8 71 9 8 2 30 4 48 5 24 1 31 -2 26 -11z
m-2284 -68 c0 -5 -4 -10 -9 -10 -6 0 -13 5 -16 10 -3 6 1 10 9 10 9 0 16 -4
16 -10z m1544 -82 c-3 -46 -8 -86 -10 -89 -2 -3 -34 -9 -71 -13 -128 -12 -129
-13 -131 -54 -3 -52 -33 -172 -42 -172 -5 0 -12 6 -17 13 -9 14 -21 -52 -22
-120 -1 -47 4 -45 -124 -58 l-58 -7 6 94 c3 51 8 105 10 120 7 43 -4 58 -39
58 -43 0 -48 7 -31 40 8 15 12 29 10 32 -2 2 -45 0 -96 -5 -50 -4 -93 -6 -96
-3 -3 3 -2 43 3 88 l9 83 95 12 c52 6 190 21 305 33 116 11 219 22 230 24 11
2 33 4 48 5 l28 1 -7 -82z m-828 -48 c34 -22 64 -81 64 -128 0 -58 -31 -136
-71 -175 l-39 -39 47 -69 c25 -38 44 -71 42 -73 -2 -2 -48 -7 -101 -12 l-98
-9 -32 50 c-30 46 -33 57 -33 132 0 45 2 80 5 77 3 -3 13 -29 22 -57 l18 -52
-5 45 c-2 25 -7 54 -11 65 -5 12 -4 16 3 12 6 -4 25 6 41 22 22 20 29 34 25
50 -3 11 -11 21 -19 21 -19 0 -53 40 -48 55 3 7 -2 27 -10 44 -9 16 -16 37
-16 45 0 32 163 28 216 -4z m-1072 -54 c6 -26 6 -27 -9 -12 -21 20 -39 20 -60
0 -22 -23 -15 -56 15 -71 14 -7 18 -13 10 -13 -30 1 -50 26 -50 66 -1 34 -2
37 -12 19 -6 -11 -17 -24 -25 -28 -7 -4 -13 -25 -13 -45 0 -57 -10 -82 -36
-88 -13 -3 -27 -18 -33 -32 -5 -15 -10 -22 -10 -15 -1 17 -40 3 -52 -18 -5
-11 -20 -19 -34 -19 -16 0 -30 -11 -45 -35 -13 -21 -30 -35 -41 -35 -11 0 -22
-7 -25 -15 -3 -8 -15 -17 -26 -21 -12 -3 -16 -10 -11 -15 9 -9 128 -28 148
-24 6 1 6 0 1 -3 -4 -2 -2 -8 5 -13 15 -9 43 46 32 64 -4 6 0 8 10 4 10 -4 23
-9 30 -12 9 -4 24 17 46 65 34 73 65 100 114 100 15 0 31 10 41 25 10 16 26
25 42 25 27 0 80 24 86 38 5 14 132 72 140 64 4 -4 10 -22 13 -41 3 -18 12
-43 20 -55 8 -11 15 -32 15 -46 0 -14 7 -33 14 -43 8 -10 11 -28 8 -40 -5 -20
-4 -20 11 -8 18 14 19 13 21 -32 2 -26 1 -27 -12 -10 -14 19 -14 16 7 -72 4
-16 5 -51 3 -77 -4 -51 -9 -54 -72 -60 -31 -3 -37 1 -52 32 -10 19 -19 38 -20
42 -2 4 -47 2 -101 -4 -53 -6 -95 -13 -92 -16 2 -3 48 -13 102 -23 77 -15 102
-24 125 -46 26 -25 31 -26 59 -16 17 7 37 9 44 7 18 -7 60 -69 80 -118 9 -21
19 -36 21 -33 3 3 1 15 -6 27 -15 27 -4 60 21 60 10 0 19 6 19 13 0 6 6 3 12
-8 36 -66 115 -106 202 -104 41 1 41 2 -9 9 -52 7 -95 28 -95 44 0 5 3 7 6 3
4 -3 18 0 33 7 23 12 28 11 45 -5 12 -11 14 -19 7 -19 -7 0 -9 -5 -6 -11 4 -6
19 -7 36 -4 25 6 29 4 29 -14 0 -20 6 -21 81 -21 l80 0 -20 29 c-12 16 -21 35
-21 43 0 8 3 9 8 3 4 -5 16 -17 26 -25 21 -16 21 -18 0 35 -6 14 -3 14 22 1
42 -21 230 -110 299 -142 51 -24 118 -33 133 -19 7 6 70 260 66 264 -2 3 -45
-1 -95 -8 -85 -11 -111 -10 -97 5 3 3 36 12 74 20 37 7 87 21 112 31 30 11 46
13 50 6 5 -8 33 -8 97 -1 118 13 272 6 291 -14 13 -13 0 -14 -113 -11 -70 2
-162 1 -203 -4 l-75 -8 -32 -120 c-45 -171 -49 -159 52 -150 74 6 85 5 85 -9
0 -13 -14 -16 -84 -16 -93 0 -100 -4 -111 -62 -6 -29 -2 -47 19 -85 27 -50 53
-190 76 -398 6 -55 26 -185 44 -290 19 -104 32 -192 30 -194 -2 -3 -19 -5 -38
-5 -19 -1 -32 -4 -30 -8 4 -7 -76 -58 -91 -58 -4 0 -5 9 -2 20 7 27 -9 26
-108 -5 -105 -32 -106 -32 -94 7 13 45 11 58 -6 58 -8 0 -15 9 -15 19 0 11 -5
23 -12 27 -7 4 -8 3 -4 -4 4 -7 2 -12 -3 -12 -12 0 -12 -1 -17 130 -4 110 -11
160 -24 160 -5 0 -9 -17 -9 -37 0 -57 -15 -98 -35 -97 -20 2 -17 -27 20 -203
26 -120 28 -144 17 -142 -26 4 -43 -3 -43 -18 1 -20 29 -74 30 -58 1 14 20
-21 30 -55 5 -18 4 -41 -3 -59 -9 -26 -8 -36 11 -69 29 -52 28 -83 -3 -112
-24 -23 -35 -47 -15 -35 6 3 10 0 10 -8 0 -8 7 -28 15 -43 24 -46 19 -73 -12
-80 l-28 -7 35 -12 35 -12 -57 -7 c-35 -5 -64 -3 -77 3 -28 15 -36 14 -21 -4
8 -10 31 -15 66 -15 36 0 54 -4 55 -12 8 -71 7 -79 -11 -73 -15 5 -17 2 -13
-14 3 -12 8 -19 12 -17 4 3 7 -5 7 -16 0 -18 -4 -16 -28 13 -29 35 -37 55 -15
43 6 -4 9 -4 5 0 -3 4 -9 8 -12 7 -3 0 -47 41 -98 90 -110 107 -372 305 -397
301 -10 -1 -24 5 -32 15 -13 16 -12 17 3 5 10 -8 22 -12 27 -10 6 1 -37 55
-95 118 -59 63 -120 135 -137 158 -32 45 -90 85 -139 96 -15 3 -40 11 -55 17
-50 20 -90 18 -103 -5 -6 -12 -29 -33 -51 -48 -46 -32 -49 -45 -13 -54 18 -5
22 -10 15 -17 -18 -18 -58 30 -70 82 -14 63 -18 311 -8 579 10 255 9 257 -68
291 -24 11 -59 31 -77 44 -18 14 -48 32 -66 41 l-32 17 -71 -54 c-69 -53 -71
-54 -73 -103 -3 -53 -29 -113 -71 -162 -59 -70 -220 -119 -244 -74 -25 47 38
112 277 288 2 1 -2 11 -9 22 -18 29 -60 51 -141 73 -148 41 -188 112 -128 229
54 105 252 227 334 206 40 -10 31 -23 -20 -30 -58 -7 -160 -57 -214 -103 -53
-45 -92 -114 -94 -163 -1 -52 32 -86 104 -106 102 -28 139 -45 168 -78 l29
-33 56 41 c58 42 68 56 42 56 -9 0 -15 9 -15 25 0 22 -2 24 -26 15 -29 -12
-44 -6 -44 17 0 11 6 14 23 9 42 -10 60 15 88 126 15 62 31 102 37 100 7 -1
12 11 11 30 0 28 -2 30 -9 13 -5 -11 -9 -14 -9 -7 -1 6 -8 12 -16 12 -8 0 -42
27 -74 60 -33 33 -62 60 -66 60 -4 0 -2 -6 4 -14 9 -11 -3 -16 -66 -29 -43 -9
-101 -19 -130 -22 -54 -7 -63 -17 -63 -77 0 -36 -18 -44 -112 -53 l-78 -7 6
74 c3 40 11 163 17 273 l12 199 229 25 c174 19 238 22 267 14 31 -8 46 -7 78
8 22 9 79 29 128 44 48 15 93 31 99 36 6 5 30 10 52 12 23 1 44 6 48 10 9 9
10 8 18 -27z m363 28 c-3 -3 -12 -4 -19 -1 -8 3 -5 6 6 6 11 1 17 -2 13 -5z
m336 -53 c8 -8 3 -11 -18 -11 -41 0 -109 -41 -113 -67 -2 -11 4 -27 12 -36 9
-9 16 -22 16 -30 0 -21 22 -26 38 -10 7 7 25 13 40 13 33 0 95 36 87 50 -3 6
3 10 14 10 12 0 21 -7 21 -16 0 -8 4 -13 8 -10 4 2 9 -5 10 -17 1 -12 4 -36 8
-53 5 -25 1 -33 -20 -47 -17 -12 -23 -23 -19 -35 5 -14 3 -13 -13 3 -26 29
-94 67 -123 70 l-24 3 24 -19 c19 -14 21 -19 9 -22 -8 -3 -30 -10 -49 -16 -19
-6 -37 -9 -39 -6 -9 9 -11 96 -2 90 5 -3 11 -1 15 5 4 6 -5 10 -19 10 -18 0
-24 4 -20 14 9 24 -32 56 -71 56 -23 0 -33 4 -31 13 3 6 7 25 11 40 4 20 10
27 20 23 8 -3 15 -1 15 5 0 14 199 4 213 -10z m-798 -142 c5 -8 4 -10 -3 -5
-16 10 -35 85 -26 105 5 10 10 -1 14 -35 4 -29 11 -58 15 -65z m105 107 c0 -2
-8 -10 -17 -17 -16 -13 -17 -12 -4 4 13 16 21 21 21 13z m708 -23 c2 -9 -8
-13 -33 -13 -31 0 -34 2 -23 15 15 17 50 16 56 -2z m42 7 c0 -5 -4 -10 -10
-10 -5 0 -10 5 -10 10 0 6 5 10 10 10 6 0 10 -4 10 -10z m-790 -45 c-7 -8 -17
-15 -23 -15 -6 0 -2 7 9 15 25 19 30 19 14 0z m500 -24 c0 -9 -33 -21 -59 -21
-11 0 -9 4 5 15 21 16 54 20 54 6z m52 -94 c-6 -12 -20 -44 -31 -72 -11 -27
-23 -49 -28 -48 -5 1 -9 -7 -9 -18 0 -12 4 -15 10 -9 13 13 39 13 31 0 -3 -5
0 -10 8 -10 8 0 18 -7 21 -16 3 -9 13 -14 20 -11 8 3 17 -1 20 -9 6 -16 36
-19 36 -3 0 5 -4 7 -10 4 -5 -3 -10 -1 -10 4 0 14 47 14 55 1 8 -14 57 -8 74
8 13 12 16 12 22 -4 9 -25 2 -31 -51 -44 -90 -23 -96 -23 -121 2 -25 24 -67
38 -54 19 3 -6 1 -11 -6 -11 -19 0 -81 71 -75 87 3 8 2 12 -3 9 -4 -3 -13 6
-20 20 -14 31 -14 37 -1 29 6 -4 10 5 10 19 0 14 6 26 13 26 9 0 9 2 -1 9 -16
10 -2 18 63 36 48 13 52 12 37 -18z m38 -37 c0 -5 -5 -10 -11 -10 -5 0 -7 5
-4 10 3 6 8 10 11 10 2 0 4 -4 4 -10z m125 -30 c-28 -12 -37 -12 -30 0 3 6 16
10 28 9 21 0 21 -1 2 -9z m95 -30 c0 -11 -4 -20 -8 -20 -4 0 -8 9 -9 20 -1 11
2 20 8 20 5 0 9 -9 9 -20z m-80 -4 c0 -11 -19 -15 -25 -6 -3 5 1 10 9 10 9 0
16 -2 16 -4z m-50 -15 c0 -5 -18 -13 -40 -19 -48 -12 -54 1 -7 16 42 13 47 14
47 3z m1475 -168 c-3 -21 -9 -49 -12 -62 -5 -21 -3 -23 23 -17 55 11 279 36
327 36 34 0 47 -4 45 -12 -3 -9 -44 -15 -134 -19 -106 -6 -263 -24 -270 -32
-3 -4 -114 -423 -129 -491 -9 -38 -14 -80 -10 -94 4 -17 2 -23 -7 -20 -25 9
-19 78 22 237 23 89 39 165 36 170 -3 4 7 50 23 101 l29 93 -46 -7 c-137 -19
-152 -19 -152 -4 0 11 15 15 63 17 34 1 80 5 102 9 38 7 40 9 58 70 21 68 44
86 32 25z m-1292 -173 c-3 -11 -7 -20 -9 -20 -2 0 -4 9 -4 20 0 11 4 20 9 20
5 0 7 -9 4 -20z m-26 -5 c0 -8 -8 -15 -18 -15 -12 0 -16 5 -13 15 4 8 12 15
18 15 7 0 13 -7 13 -15z m48 -5 c3 -5 1 -10 -4 -10 -6 0 -11 5 -11 10 0 6 2
10 4 10 3 0 8 -4 11 -10z m861 -21 c-3 -17 -19 -47 -34 -67 -32 -41 -47 -87
-32 -97 5 -3 34 17 63 44 57 54 67 59 67 37 0 -15 -74 -87 -108 -105 -45 -24
-70 13 -53 76 27 95 114 196 97 112z m168 -18 c3 -4 -6 -13 -19 -19 -31 -14
-31 -29 -2 -81 l23 -41 39 40 c63 64 72 46 11 -22 -31 -34 -56 -70 -56 -80 0
-51 -91 -181 -113 -159 -15 15 0 55 48 126 25 36 45 74 45 84 0 10 -11 35 -25
55 -30 45 -30 47 -4 80 20 26 43 34 53 17z m-754 -1153 c0 -49 -5 -47 -14 5
-4 23 -3 37 4 37 5 0 10 -19 10 -42z m192 -155 c2 -32 8 -67 13 -77 7 -16 5
-18 -8 -13 -9 3 -17 2 -17 -4 0 -7 -17 -10 -45 -7 -25 2 -45 0 -45 -4 0 -5 -8
-8 -17 -8 -14 0 -13 3 5 16 21 15 32 42 12 29 -5 -3 -8 0 -5 7 2 7 9 39 15 70
9 46 15 57 33 60 42 7 55 -8 59 -69z m25 -30 c-2 -21 -4 -6 -4 32 0 39 2 55 4
38 2 -18 2 -50 0 -70z m-1089 14 c4 -33 -22 -47 -45 -24 -22 21 -8 59 20 55
16 -2 23 -11 25 -31z m-1888 -48 c7 -17 20 -37 28 -46 13 -13 12 -19 -7 -53
-28 -50 -27 -84 4 -104 23 -15 23 -18 10 -48 -14 -35 -52 -57 -97 -58 -26 0
-27 3 -25 38 1 20 -2 55 -6 77 -7 32 -6 38 4 28 17 -17 44 -16 59 2 11 13 8
15 -16 15 -37 1 -61 19 -74 57 -20 55 23 123 76 123 26 0 34 -6 44 -31z m2047
-14 c2 -5 -8 -10 -22 -10 -25 0 -31 6 -18 19 9 9 36 3 40 -9z m-13 -42 c9 4
16 2 16 -2 0 -5 -6 -11 -14 -14 -15 -6 -36 11 -36 28 0 5 4 4 9 -4 5 -8 16
-11 25 -8z m881 -33 c3 -5 -1 -10 -9 -10 -8 0 -18 5 -21 10 -3 6 1 10 9 10 8
0 18 -4 21 -10z m60 0 c3 -6 -1 -7 -9 -4 -18 7 -21 14 -7 14 6 0 13 -4 16 -10z
m-39 -62 c4 -5 10 -5 18 1 9 7 12 3 13 -17 1 -24 1 -24 -7 -7 l-9 20 -1 -20
-1 -20 -8 20 c-6 15 -9 9 -12 -27 -2 -25 -1 -44 3 -42 3 2 9 -4 11 -13 3 -13
5 -11 8 7 1 14 5 -31 9 -100 7 -144 5 -166 -16 -146 -13 14 -54 11 -54 -3 0
-4 -14 -6 -31 -3 -27 4 -30 7 -25 31 l6 26 -16 -25 -15 -25 5 25 c3 14 6 33 6
42 0 9 9 20 21 23 19 6 19 8 5 30 -17 25 -11 135 7 135 6 0 7 16 3 40 -4 25
-2 40 4 40 5 0 9 3 9 8 -1 4 -1 10 0 13 2 9 61 -2 67 -13z m-3008 -350 c62 -3
112 -8 113 -11 2 -27 -32 -36 -192 -52 -66 -6 -66 -6 -72 20 -7 42 2 66 22 56
9 -5 67 -11 129 -13z m2924 -10 c29 -9 41 -9 50 0 16 16 38 15 38 -1 0 -7 9
-23 19 -34 19 -21 19 -21 -3 -42 -30 -28 -43 -27 -72 9 -14 16 -28 29 -32 28
-13 -2 -62 21 -62 30 0 9 10 22 18 22 3 0 22 -5 44 -12z m-9 -67 c-2 -6 2 -11
7 -11 6 0 10 -21 10 -46 0 -27 -4 -43 -10 -39 -6 4 -10 -9 -11 -32 l-1 -38
-21 45 c-11 26 -21 67 -21 96 -1 50 0 51 24 44 14 -4 24 -12 23 -19z m130
-111 c3 -41 3 -65 1 -52 -3 12 -9 22 -14 22 -4 0 -6 9 -3 20 3 11 1 32 -4 47
-6 15 -8 34 -5 41 9 28 20 -6 25 -78z m-32 30 c14 0 11 -30 -5 -45 -12 -12
-15 -9 -20 21 -4 19 -3 40 1 47 5 9 8 7 11 -5 2 -10 8 -18 13 -18z m-1421 -16
c0 14 4 26 10 26 7 0 4 -56 -5 -68 -1 -1 -19 14 -41 34 l-39 35 38 -26 37 -27
0 26z m1367 -26 c-2 -13 -4 -5 -4 17 -1 22 1 32 4 23 2 -10 2 -28 0 -40z
m-2895 -40 c-2 -10 -8 -18 -12 -18 -9 0 -10 50 -2 64 8 14 20 -25 14 -46z m38
17 c0 -19 -4 -35 -10 -35 -11 0 -14 53 -3 63 11 12 13 8 13 -28z m-257 -44
c-9 -13 -17 21 -13 54 2 12 5 6 9 -15 4 -19 6 -37 4 -39z m50 49 c9 -11 17
-28 17 -37 0 -14 -4 -12 -17 7 l-17 24 -7 -24 c-6 -21 -7 -19 -8 13 -1 42 7
46 32 17z m27 16 c0 -3 -4 -8 -10 -11 -5 -3 -10 -1 -10 4 0 6 5 11 10 11 6 0
10 -2 10 -4z m30 -10 c0 -8 -4 -18 -10 -21 -5 -3 -10 3 -10 14 0 12 5 21 10
21 6 0 10 -6 10 -14z m60 -11 c0 -12 -3 -16 -8 -9 -4 6 -14 10 -23 9 -9 -2
-16 3 -16 10 0 7 11 12 24 11 16 -1 23 -7 23 -21z m247 -6 c2 -22 2 -22 -6 -4
-8 17 -10 18 -10 3 -1 -10 -5 -18 -11 -18 -5 0 -11 8 -11 18 -1 16 -2 16 -6 0
-2 -10 -9 -18 -14 -18 -5 0 -9 8 -10 18 0 14 -2 14 -9 -3 -5 -11 -9 -14 -9 -7
-1 18 -19 15 -24 -5 -3 -12 -5 -8 -6 9 -1 24 3 27 37 30 68 6 77 3 79 -23z
m53 16 c0 -8 -4 -15 -10 -15 -5 0 -10 5 -10 12 0 6 -3 8 -7 4 -5 -4 1 -14 12
-22 17 -13 18 -16 5 -24 -8 -5 -18 -10 -22 -10 -10 0 -10 54 -1 63 12 13 33 7
33 -8z m-180 -21 c0 -14 -4 -23 -10 -19 -5 3 -10 15 -10 26 0 10 5 19 10 19 6
0 10 -12 10 -26z m2445 14 c-39 -14 -37 -11 -29 -42 5 -21 11 -25 26 -20 14 4
18 2 14 -5 -8 -13 -46 -15 -46 -2 0 5 -3 22 -6 39 -6 31 3 39 51 40 13 0 10
-3 -10 -10z m-734 -8 c15 0 19 -8 19 -35 0 -38 -1 -39 -74 -29 -39 6 -46 10
-45 28 1 17 2 17 6 4 2 -10 13 -18 22 -18 10 0 33 -3 51 -6 29 -6 31 -5 28 17
-3 20 -12 25 -63 36 -57 12 -58 12 -11 8 27 -3 57 -5 67 -5z m1127 -22 c0 -13
-2 -36 -5 -51 -4 -26 -6 -27 -17 -11 -10 13 -10 26 -3 51 12 38 26 44 25 11z
m-72 -11 c3 -3 3 -19 -1 -34 -6 -27 -7 -27 -21 -9 -18 26 -18 55 1 52 8 -1 17
-5 21 -9z m111 -19 c-3 -7 -5 -2 -5 12 0 14 2 19 5 13 2 -7 2 -19 0 -25z
m-437 -48 c-12 -7 -12 -12 -2 -22 18 -18 15 -25 -13 -32 -14 -4 -23 -11 -20
-16 3 -6 -5 -10 -19 -10 -31 0 -45 20 -18 27 13 3 19 11 17 23 -3 13 1 17 11
13 8 -3 14 -1 14 5 0 6 -6 13 -12 15 -7 3 3 6 22 6 26 1 31 -2 20 -9z m105
-50 c0 -8 -8 -15 -18 -16 -12 -1 -13 -1 -2 3 8 2 15 9 15 15 0 5 -7 8 -15 4
-8 -3 -15 -1 -15 5 0 6 8 9 18 7 9 -2 17 -10 17 -18z m-68 -12 c-3 -8 -6 -5
-6 6 -1 11 2 17 5 13 3 -3 4 -12 1 -19z m0 -50 c-3 -7 -5 -2 -5 12 0 14 2 19
5 13 2 -7 2 -19 0 -25z m-110 -50 c-3 -8 -6 -5 -6 6 -1 11 2 17 5 13 3 -3 4
-12 1 -19z m182 -42 c9 -10 7 -17 -6 -27 -16 -13 -17 -12 -5 3 8 10 9 19 3 22
-5 4 -14 -2 -20 -11 -12 -20 -14 -13 -5 11 8 20 18 20 33 2z m111 -2 c0 -2 -7
-4 -15 -4 -8 0 -15 4 -15 10 0 5 7 7 15 4 8 -4 15 -8 15 -10z m-281 -59 c0 -5
-6 1 -14 15 -8 14 -14 30 -14 35 0 6 6 -1 14 -15 8 -14 14 -29 14 -35z m295
35 c14 0 26 5 26 12 0 6 6 3 14 -8 14 -18 15 -18 21 -1 4 9 15 17 24 17 21 0
42 -79 34 -122 -3 -17 1 -38 12 -54 9 -14 15 -37 13 -49 -3 -14 -1 -22 6 -19
13 5 46 -46 45 -68 0 -7 -4 -3 -9 9 -12 28 -25 29 -43 3 -8 -12 -21 -18 -29
-15 -9 4 -22 -1 -31 -9 -18 -18 -37 -21 -37 -6 0 6 -11 10 -25 10 -24 0 -25 3
-25 60 0 61 6 68 39 50 13 -6 24 -5 37 5 18 13 17 14 -13 21 -18 3 -33 10 -33
15 0 5 -11 9 -24 9 -21 0 -25 6 -31 46 -4 29 -11 44 -18 41 -8 -3 -12 9 -13
34 0 33 2 37 17 28 10 -5 29 -9 43 -9z m-256 -115 c-3 -3 -9 2 -12 12 -6 14
-5 15 5 6 7 -7 10 -15 7 -18z m139 -11 c8 -21 -13 -42 -28 -27 -13 13 -5 43
11 43 6 0 13 -7 17 -16z m-107 -45 c12 -23 20 -43 18 -45 -3 -2 -14 17 -26 41
-27 56 -20 60 8 4z m47 -46 c-3 -10 -5 -2 -5 17 0 19 2 27 5 18 2 -10 2 -26 0
-35z m350 -79 c-3 -3 -12 -4 -19 -1 -8 3 -5 6 6 6 11 1 17 -2 13 -5z m-278
-33 c-13 -11 -26 -18 -28 -15 -2 2 7 12 20 23 13 11 26 18 28 15 2 -2 -7 -12
-20 -23z"/>
<path d="M2950 4912 c0 -28 2 -30 28 -23 17 5 27 14 27 27 0 13 -8 20 -27 22
-25 3 -28 0 -28 -26z"/>
<path d="M2952 4838 c3 -26 41 -37 63 -18 23 19 6 40 -32 40 -30 0 -34 -3 -31
-22z"/>
<path d="M4208 4211 c-21 -38 -38 -72 -38 -75 0 -6 131 3 139 10 5 4 -52 133
-59 134 -3 0 -22 -31 -42 -69z"/>
<path d="M3433 4207 l-103 -10 0 -30 c0 -29 0 -30 48 -24 26 4 78 9 115 13 47
5 70 12 76 23 11 22 3 41 -17 39 -9 -1 -63 -6 -119 -11z"/>
<path d="M3443 4004 c-62 -7 -117 -15 -123 -19 -5 -3 -10 -18 -10 -31 0 -22 3
-25 28 -20 15 3 82 11 150 17 123 13 150 23 138 54 -6 18 -26 18 -183 -1z"/>
<path d="M2781 3245 c0 -11 4 -27 9 -35 9 -13 10 -13 9 0 0 8 -4 24 -9 35 l-9
20 0 -20z"/>
<path d="M1953 3297 c-18 -35 -33 -66 -33 -69 0 -7 91 -1 117 7 8 3 3 23 -15
64 -15 34 -29 61 -32 61 -3 0 -20 -28 -37 -63z"/>
<path d="M1188 3273 c-14 -4 -18 -15 -18 -59 l0 -54 58 6 c31 4 61 10 65 14 4
3 1 20 -8 36 -8 16 -15 37 -15 47 0 13 -8 17 -32 16 -18 -1 -41 -3 -50 -6z"/>
<path d="M1320 3156 c0 -2 8 -10 18 -17 15 -13 16 -12 3 4 -13 16 -21 21 -21
13z"/>
<path d="M1931 2910 c0 -8 6 -28 14 -45 17 -39 18 -21 0 25 -7 19 -14 28 -14
20z"/>
<path d="M1833 2850 c0 -25 2 -35 4 -22 2 12 2 32 0 45 -2 12 -4 2 -4 -23z"/>
<path d="M1891 2794 c0 -11 3 -14 6 -6 3 7 2 16 -1 19 -3 4 -6 -2 -5 -13z"/>
<path d="M3207 2703 c-8 -7 11 -33 24 -33 5 0 9 9 9 20 0 19 -20 27 -33 13z"/>
<path d="M1284 2392 c-103 -82 -167 -148 -160 -167 6 -18 86 -7 131 19 74 44
140 144 133 202 -3 25 -7 23 -104 -54z"/>
<path d="M2570 2369 c0 -5 5 -7 10 -4 6 3 10 8 10 11 0 2 -4 4 -10 4 -5 0 -10
-5 -10 -11z"/>
<path d="M1900 1680 c0 -5 4 -10 9 -10 6 0 13 5 16 10 3 6 -1 10 -9 10 -9 0
-16 -4 -16 -10z"/>
<path d="M3330 1680 c-13 -8 -12 -10 3 -10 9 0 17 5 17 10 0 12 -1 12 -20 0z"/>
<path d="M2880 1200 c0 -10 15 -13 82 -14 42 -1 50 8 16 18 -36 9 -98 7 -98
-4z"/>
<path d="M3738 2538 c-24 -36 -39 -68 -33 -68 8 0 57 81 52 86 -2 3 -11 -6
-19 -18z"/>
<path d="M3201 1484 c0 -11 3 -14 6 -6 3 7 2 16 -1 19 -3 4 -6 -2 -5 -13z"/>
<path d="M2126 1481 c-9 -14 5 -42 18 -38 15 5 14 39 -1 44 -6 2 -14 0 -17 -6z"/>
<path d="M186 1384 c-8 -21 -1 -28 18 -21 9 4 13 13 10 22 -8 20 -20 19 -28
-1z"/>
<path d="M242 1384 c4 -19 21 -19 24 1 1 8 -4 15 -13 15 -8 0 -13 -7 -11 -16z"/>
<path d="M191 1328 c-21 -7 -23 -11 -10 -22 26 -26 54 -27 78 -5 12 12 19 24
15 28 -4 3 -9 0 -11 -6 -3 -7 -19 -13 -36 -12 -30 1 -30 1 -7 8 18 5 21 9 10
13 -8 3 -26 1 -39 -4z"/>
<path d="M105 900 c3 -5 8 -10 11 -10 2 0 4 5 4 10 0 6 -5 10 -11 10 -5 0 -7
-4 -4 -10z"/>
<path d="M3121 284 c0 -11 3 -14 6 -6 3 7 2 16 -1 19 -3 4 -6 -2 -5 -13z"/>
<path d="M3130 95 c0 -8 5 -15 10 -15 6 0 10 7 10 15 0 8 -4 15 -10 15 -5 0
-10 -7 -10 -15z"/>
<path d="M2875 220 c3 -5 8 -10 11 -10 2 0 4 5 4 10 0 6 -5 10 -11 10 -5 0 -7
-4 -4 -10z"/>
<path d="M2717 5253 c-13 -12 -7 -23 13 -23 11 0 20 7 20 15 0 15 -21 21 -33
8z"/>
<path d="M2850 5249 c0 -5 5 -7 10 -4 6 3 10 8 10 11 0 2 -4 4 -10 4 -5 0 -10
-5 -10 -11z"/>
<path d="M3420 5220 c0 -41 9 -50 29 -26 8 9 8 21 1 40 -14 39 -30 32 -30 -14z"/>
<path d="M3513 5248 c2 -7 10 -13 17 -13 7 0 15 6 18 13 2 7 -5 12 -18 12 -13
0 -20 -5 -17 -12z"/>
<path d="M3610 5250 c0 -5 9 -14 20 -20 22 -12 27 -1 8 18 -14 14 -28 16 -28
2z"/>
<path d="M3740 5250 c0 -5 12 -35 26 -66 25 -55 26 -63 22 -193 -3 -75 -7
-143 -9 -151 -3 -13 35 -15 294 -18 l297 -2 0 70 0 70 -147 2 c-137 2 -258 5
-292 7 -12 1 -12 4 -3 13 7 7 12 23 12 38 l0 25 215 -3 215 -3 0 60 c0 60 0
60 -32 66 -18 3 -109 7 -203 9 -93 2 -176 4 -182 5 -8 1 -13 15 -13 36 l0 35
168 3 c123 2 97 3 -100 5 -168 1 -268 -2 -268 -8z m618 -105 c12 -12 -6 -11
-38 1 l-35 14 34 -5 c19 -3 37 -7 39 -10z"/>
<path d="M1925 5140 c-3 -5 -1 -10 4 -10 6 0 11 5 11 10 0 6 -2 10 -4 10 -3 0
-8 -4 -11 -10z"/>
<path d="M4390 5084 c0 -16 5 -24 13 -22 18 7 20 35 2 41 -11 5 -15 0 -15 -19z"/>
<path d="M1809 5036 c28 -28 85 -56 118 -56 6 0 21 9 34 21 19 17 21 22 9 29
-8 6 -22 10 -30 10 -8 0 -33 7 -55 15 -22 8 -56 14 -74 15 l-35 0 33 -34z"/>
<path d="M4391 4928 l-1 -108 105 0 105 0 0 58 c0 58 -12 93 -27 78 -4 -5 -3
-10 2 -12 6 -2 9 -22 7 -44 -4 -35 -7 -40 -30 -40 -14 0 -22 3 -19 7 4 3 2 12
-4 20 -7 7 -9 26 -5 44 4 22 0 38 -16 60 -21 28 -58 40 -58 19 0 -18 -48 -11
-53 8 -3 9 -5 -31 -6 -90z"/>
<path d="M1990 4995 c-10 -12 -7 -15 14 -21 15 -3 30 -13 35 -22 5 -8 14 -12
20 -7 9 5 8 12 -6 27 -29 32 -49 39 -63 23z"/>
<path d="M3160 4928 c0 -13 -3 -33 -6 -45 -5 -20 -2 -23 20 -23 29 0 32 11 15
59 -13 36 -29 41 -29 9z"/>
<path d="M5082 4825 c-11 -13 -10 -15 7 -15 14 0 19 5 15 15 -7 18 -6 18 -22
0z"/>
<path d="M3701 4806 c-14 -35 -68 -68 -103 -62 -36 7 -46 -12 -12 -20 37 -9
92 21 117 64 11 18 17 36 13 39 -3 3 -10 -6 -15 -21z"/>
<path d="M4963 4710 c1 -15 8 -20 32 -20 23 0 27 3 15 10 -8 5 -10 10 -5 10
14 0 -17 20 -32 20 -6 0 -11 -9 -10 -20z"/>
<path d="M1992 4510 c0 -14 2 -19 5 -12 2 6 2 18 0 25 -3 6 -5 1 -5 -13z"/>
<path d="M2015 4498 c-6 -13 -14 -21 -19 -18 -17 10 -27 -41 -12 -68 30 -59
38 -81 34 -93 -6 -17 15 -38 39 -41 10 0 44 0 76 0 52 2 57 4 57 25 0 13 -14
36 -30 52 -17 16 -42 49 -56 72 -14 24 -29 43 -35 43 -5 0 -15 11 -21 25 -14
31 -20 31 -33 3z m-2 -45 c-7 -2 -13 -12 -13 -21 0 -13 -3 -13 -12 -4 -10 10
-10 15 2 22 8 5 20 9 25 9 6 0 4 -3 -2 -6z"/>
<path d="M195 4490 c-3 -5 1 -10 10 -10 9 0 13 5 10 10 -3 6 -8 10 -10 10 -2
0 -7 -4 -10 -10z"/>
<path d="M538 4443 c12 -2 32 -2 45 0 12 2 2 4 -23 4 -25 0 -35 -2 -22 -4z"/>
<path d="M260 4406 c0 -2 7 -6 15 -10 8 -3 15 -1 15 4 0 6 -7 10 -15 10 -8 0
-15 -2 -15 -4z"/>
<path d="M81 4374 c0 -11 3 -14 6 -6 3 7 2 16 -1 19 -3 4 -6 -2 -5 -13z"/>
<path d="M810 4381 c0 -5 5 -13 10 -16 6 -3 10 -2 10 4 0 5 -4 13 -10 16 -5 3
-10 2 -10 -4z"/>
<path d="M620 4365 c7 -9 15 -13 17 -11 7 7 -7 26 -19 26 -6 0 -6 -6 2 -15z"/>
<path d="M837 4359 c-5 -17 -9 -19 -26 -10 -14 8 -34 8 -72 0 -28 -6 -69 -9
-90 -6 -39 5 -63 -8 -35 -19 8 -3 13 -11 10 -18 -7 -18 -34 -16 -34 3 -1 12
-5 10 -20 -7 -14 -17 -25 -22 -40 -17 -11 4 -18 11 -15 16 4 5 -4 9 -17 10
-22 0 -22 1 -3 9 14 6 1 9 -43 9 -40 1 -61 -3 -57 -9 3 -5 -2 -10 -12 -10 -13
0 -15 -2 -5 -9 10 -6 8 -16 -10 -44 -20 -31 -27 -36 -53 -32 -24 4 -26 3 -10
-4 11 -5 97 -10 190 -11 94 -1 164 -4 158 -7 -7 -2 -13 -14 -13 -25 0 -20 3
-21 118 -14 86 5 128 13 159 27 39 19 41 22 27 36 -12 12 -37 16 -95 17 -57 0
-76 3 -67 11 37 29 90 125 69 125 -5 0 -11 -9 -14 -21z"/>
<path d="M120 4351 c0 -5 7 -17 16 -26 9 -9 13 -19 10 -23 -4 -3 -11 0 -16 8
-5 8 -12 11 -17 6 -4 -4 0 -12 9 -17 9 -5 24 -16 32 -25 10 -9 25 -13 43 -9
21 4 23 3 9 -3 -22 -9 -15 -16 26 -26 15 -3 30 -2 33 4 3 5 -1 10 -9 10 -12 0
-16 10 -16 35 0 29 -4 36 -25 41 -14 3 -32 4 -40 0 -8 -3 -15 -2 -15 2 0 4 -9
13 -20 20 -11 7 -20 8 -20 3z"/>
<path d="M485 4345 c23 -8 83 -10 79 -3 -3 4 -24 8 -47 7 -23 0 -37 -2 -32 -4z"/>
<path d="M916 4315 c9 -14 24 -25 33 -24 10 0 11 2 4 6 -7 2 -13 13 -13 24 0
12 -7 19 -20 19 -20 0 -20 -1 -4 -25z"/>
<path d="M1887 4122 c-69 -94 -175 -150 -263 -140 -30 4 -32 1 -38 -32 -23
-138 31 -200 161 -187 80 8 139 41 164 90 17 33 22 66 26 179 4 94 3 138 -5
138 -6 0 -26 -21 -45 -48z"/>
<path d="M5193 3953 c-18 -7 -16 -30 2 -37 19 -7 65 10 65 24 0 5 -6 10 -14
10 -8 0 -20 2 -28 4 -7 3 -19 2 -25 -1z"/>
<path d="M0 3350 c0 -5 18 -10 40 -10 22 0 40 5 40 10 0 6 -18 10 -40 10 -22
0 -40 -4 -40 -10z"/>
<path d="M2075 137 c-4 -25 -5 -53 -2 -63 3 -11 5 0 6 24 1 30 5 42 16 42 19
0 19 14 1 29 -12 10 -16 5 -21 -32z"/>
<path d="M2070 10 c0 -5 21 -9 48 -9 42 1 44 2 17 9 -44 11 -65 11 -65 0z"/>
</g>
</svg>
